<?xml version="1.0" encoding="iso-8859-1"?>
<!-- Generator: Adobe Illustrator 29.6.1, SVG Export Plug-In . SVG Version: 9.03 Build 0)  -->
<svg version="1.2" baseProfile="tiny" id="Layer_1" xmlns="http://www.w3.org/2000/svg" xmlns:xlink="http://www.w3.org/1999/xlink"
	 x="0px" y="0px" viewBox="0 0 160 160" overflow="visible" xml:space="preserve">
<g>
	<path d="M86.477,141.332c-2.437,2.556-10.845,1.695-14.362-1.134c-4.813-2.99-32.098-25.923-34.413-30.381
		c-0.021-0.041-5.787-8.126-6.159-12.759c-0.012-0.083-0.005-28.041-0.005-28.041c0-0.888,0.72-1.607,1.608-1.607h6.374
		c0.888,0,1.609,0.725,1.608,1.613c-0.011,9.133,0.445,18.385,0.457,27.524c0.001,0.459,0.084,0.909,0.251,1.337
		c-1.656,3.608,34.905,34.252,35.76,34.678c1.576,1.401,3.947,1.416,5.539,0.033c0.883-0.767,1.866-1.62,2.779-2.413
		c1.767-1.534,1.827-4.252,0.127-5.858C79.178,117.84,63.151,102.72,57.95,98.02c-2.016-1.822-3.18-4.397-3.214-7.114
		c-0.081-6.511-0.013-18.592,0.05-23.574c0.018-1.431,0.558-2.796,1.525-3.851c1.797-1.96,4.839-5.255,6.868-7.288
		c3.09-3.096,6.128-5.916,9.062-8.476c0.274-0.239,0.676-0.242,0.959-0.015l6.213,5.504c0.235,0.189,0.331,0.377,0.118,0.591
		c-4.318,4.324-11.237,11.42-14.412,14.59c-1.009,1.007-1.571,2.37-1.571,3.795l0,16.67c0,0.953,0.38,1.866,1.056,2.537
		l30.91,29.155c0.608,0.613,0.532,0.586,1.167,0c5.381-4.97,20.193-17.187,21.354-22.488c0.626-2.858,0.53-31.478,0.531-34.795
		l-1.795-4.252c0.52-1.748-24.297-23.973-30.862-29.588c-4.142-3.542-8.834-3.471-13.2,1.052L51.812,49.182
		c-0.664,0.627-0.82,1.258-1.419,0.569l-4.925-5.658c-0.564-0.648-0.523-1.622,0.099-2.215c5.632-5.366,25.556-23.936,27.144-23.216
		c0.751-1.642,13.117-2.646,16.046,0.756l34.213,31.195c0.059,0.059,0.15,0.151,0.208,0.211c1.076,1.221,2.552,3.191,3.639,5.936
		c1.176,2.969,1.405,5.599,1.422,7.25c0.033,11.637,0.418,26.45,0.1,34.911c-0.317,8.437-23.335,25.789-31.226,33.534"/>
	<path d="M85.667,103.476l2.111,2.489c1.302,1.536,3.64,1.641,5.066,0.22c4.741-4.726,11.538-12.173,12.034-13.75
		c0.378-1.2,0.637-2.324,0.814-3.338c0.017-0.096,0.024-0.19,0.025-0.287c0.017-5.519,0.025-11.006,0.04-16.52
		c0.003-0.899-0.733-1.628-1.632-1.614l-8.117,0.168c-0.326,0.007,0,15.555,0,15.555c0,1.963-0.177,3.224-1.051,5.291l-9.028,9.277
		C85.122,101.796,85.091,102.798,85.667,103.476z"/>
</g>
</svg>
